<mxfile host="app.diagrams.net" modified="2023-04-03T13:44:48.027Z" agent="Mozilla/5.0 (X11; Ubuntu; Linux x86_64; rv:109.0) Gecko/20100101 Firefox/111.0" etag="H-E8CcxvwVV54xC5nOmE" version="21.1.2" type="device">
  <diagram name="Page-1" id="2cc2dc42-3aac-f2a9-1cec-7a8b7cbee084">
    <mxGraphModel dx="1103" dy="698" grid="1" gridSize="10" guides="1" tooltips="1" connect="1" arrows="1" fold="1" page="1" pageScale="1" pageWidth="1100" pageHeight="850" background="none" math="0" shadow="0">
      <root>
        <mxCell id="0" />
        <mxCell id="1" parent="0" />
        <mxCell id="7026571954dc6520-1" value="" style="strokeWidth=1;shadow=0;dashed=0;align=center;html=1;shape=mxgraph.mockup.containers.browserWindow;rSize=0;strokeColor=#666666;mainText=,;recursiveResize=0;rounded=0;labelBackgroundColor=#ADADAD;fontFamily=Verdana;fontSize=12" parent="1" vertex="1">
          <mxGeometry y="30" width="1050" height="3040" as="geometry" />
        </mxCell>
        <mxCell id="7026571954dc6520-2" value="Vittoria" style="strokeWidth=1;shadow=0;dashed=0;align=center;html=1;shape=mxgraph.mockup.containers.anchor;fontSize=17;fontColor=#666666;align=left;" parent="7026571954dc6520-1" vertex="1">
          <mxGeometry x="60" y="12" width="100" height="28" as="geometry" />
        </mxCell>
        <mxCell id="7026571954dc6520-3" value="https://tf-vittoria.herokuapp.com" style="strokeWidth=1;shadow=0;dashed=0;align=center;html=1;shape=mxgraph.mockup.containers.anchor;rSize=0;fontSize=17;fontColor=#666666;align=left;" parent="7026571954dc6520-1" vertex="1">
          <mxGeometry x="130" y="60" width="250" height="26" as="geometry" />
        </mxCell>
        <mxCell id="7026571954dc6520-4" value="&lt;div style=&quot;font-size: 28px;&quot; align=&quot;center&quot;&gt;&lt;font style=&quot;font-size: 21px;&quot;&gt;Home&amp;nbsp; Shop&amp;nbsp; Category&lt;/font&gt;&lt;/div&gt;" style="text;html=1;points=[];align=center;verticalAlign=top;spacingTop=-4;fontSize=30;fontFamily=Verdana" parent="7026571954dc6520-1" vertex="1">
          <mxGeometry x="110" y="130" width="340" height="50" as="geometry" />
        </mxCell>
        <mxCell id="7026571954dc6520-14" value="Search" style="strokeWidth=1;shadow=0;dashed=0;align=center;html=1;shape=mxgraph.mockup.forms.searchBox;strokeColor=#999999;mainText=;strokeColor2=#008cff;fontColor=#666666;fontSize=17;align=left;spacingLeft=3;rounded=0;labelBackgroundColor=none;" parent="7026571954dc6520-1" vertex="1">
          <mxGeometry x="490" y="140" width="220" height="30" as="geometry" />
        </mxCell>
        <mxCell id="7026571954dc6520-15" value="" style="verticalLabelPosition=bottom;shadow=0;dashed=0;align=center;html=1;verticalAlign=top;strokeWidth=1;shape=mxgraph.mockup.markup.line;strokeColor=#999999;rounded=0;labelBackgroundColor=none;fillColor=#ffffff;fontFamily=Verdana;fontSize=12;fontColor=#000000;" parent="7026571954dc6520-1" vertex="1">
          <mxGeometry y="210" width="1050" height="20" as="geometry" />
        </mxCell>
        <mxCell id="7026571954dc6520-17" value="&lt;h2&gt;&lt;font style=&quot;font-size: 25px;&quot;&gt;Lasting value for the discerning individual&lt;/font&gt;&lt;/h2&gt;&lt;br&gt;                        &lt;p&gt;&lt;font style=&quot;font-size: 20px;&quot;&gt;Shop our catalog of curated objects for modern living.&lt;/font&gt;&lt;/p&gt;" style="text;spacingTop=-5;whiteSpace=wrap;html=1;align=left;fontSize=12;fontFamily=Helvetica;fillColor=none;strokeColor=none;rounded=0;shadow=1;labelBackgroundColor=none;" parent="7026571954dc6520-1" vertex="1">
          <mxGeometry x="20" y="422.5" width="550" height="160" as="geometry" />
        </mxCell>
        <mxCell id="7026571954dc6520-21" value="" style="verticalLabelPosition=bottom;shadow=0;dashed=0;align=center;html=1;verticalAlign=top;strokeWidth=1;shape=mxgraph.mockup.markup.line;strokeColor=#999999;rounded=0;labelBackgroundColor=none;fillColor=#ffffff;fontFamily=Verdana;fontSize=12;fontColor=#000000;" parent="7026571954dc6520-1" vertex="1">
          <mxGeometry y="800" width="1040" height="20" as="geometry" />
        </mxCell>
        <mxCell id="7026571954dc6520-22" value="" style="verticalLabelPosition=bottom;shadow=0;dashed=0;align=center;html=1;verticalAlign=top;strokeWidth=1;shape=mxgraph.mockup.graphics.simpleIcon;strokeColor=#999999;fillColor=#ffffff;rounded=0;labelBackgroundColor=none;fontFamily=Verdana;fontSize=12;fontColor=#000000;" parent="7026571954dc6520-1" vertex="1">
          <mxGeometry x="72" y="940" width="200" height="200" as="geometry" />
        </mxCell>
        <mxCell id="9kK-CNt0EK_spcfwn9jb-1" value="" style="ellipse;whiteSpace=wrap;html=1;aspect=fixed;" parent="7026571954dc6520-1" vertex="1">
          <mxGeometry x="20" y="115" width="80" height="80" as="geometry" />
        </mxCell>
        <mxCell id="9kK-CNt0EK_spcfwn9jb-4" value="" style="verticalLabelPosition=bottom;shadow=0;dashed=0;align=center;html=1;verticalAlign=top;strokeWidth=1;shape=mxgraph.mockup.misc.shoppingCart;strokeColor=#999999;" parent="7026571954dc6520-1" vertex="1">
          <mxGeometry x="880" y="140" width="30" height="30" as="geometry" />
        </mxCell>
        <mxCell id="9kK-CNt0EK_spcfwn9jb-5" value="&lt;font style=&quot;font-size: 16px;&quot;&gt;Login&lt;/font&gt;" style="strokeWidth=1;shadow=0;dashed=0;align=center;html=1;shape=mxgraph.mockup.buttons.button;strokeColor=#666666;fontColor=#ffffff;mainText=;buttonStyle=round;fontSize=17;fontStyle=1;fillColor=#008cff;whiteSpace=wrap;" parent="7026571954dc6520-1" vertex="1">
          <mxGeometry x="920" y="140" width="120" height="30" as="geometry" />
        </mxCell>
        <mxCell id="9kK-CNt0EK_spcfwn9jb-8" value="Logo" style="text;html=1;points=[];align=center;verticalAlign=top;spacingTop=-4;fontSize=15;fontFamily=Verdana" parent="7026571954dc6520-1" vertex="1">
          <mxGeometry x="35" y="145" width="50" height="20" as="geometry" />
        </mxCell>
        <mxCell id="9kK-CNt0EK_spcfwn9jb-10" value="" style="verticalLabelPosition=bottom;shadow=0;dashed=0;align=center;html=1;verticalAlign=top;strokeWidth=1;shape=mxgraph.mockup.graphics.simpleIcon;strokeColor=#999999;" parent="7026571954dc6520-1" vertex="1">
          <mxGeometry x="580" y="270" width="380" height="500" as="geometry" />
        </mxCell>
        <mxCell id="9kK-CNt0EK_spcfwn9jb-11" value="Shop Now" style="strokeWidth=1;shadow=0;dashed=0;align=center;html=1;shape=mxgraph.mockup.buttons.button;strokeColor=#666666;fontColor=#ffffff;mainText=;buttonStyle=round;fontSize=17;fontStyle=1;fillColor=#008cff;whiteSpace=wrap;" parent="7026571954dc6520-1" vertex="1">
          <mxGeometry x="190" y="587.5" width="120" height="30" as="geometry" />
        </mxCell>
        <mxCell id="9kK-CNt0EK_spcfwn9jb-15" value="" style="verticalLabelPosition=bottom;shadow=0;dashed=0;align=center;html=1;verticalAlign=top;strokeWidth=1;shape=mxgraph.mockup.graphics.simpleIcon;strokeColor=#999999;fillColor=#ffffff;rounded=0;labelBackgroundColor=none;fontFamily=Verdana;fontSize=12;fontColor=#000000;" parent="7026571954dc6520-1" vertex="1">
          <mxGeometry x="408.5" y="940" width="200" height="200" as="geometry" />
        </mxCell>
        <mxCell id="9kK-CNt0EK_spcfwn9jb-16" value="" style="verticalLabelPosition=bottom;shadow=0;dashed=0;align=center;html=1;verticalAlign=top;strokeWidth=1;shape=mxgraph.mockup.graphics.simpleIcon;strokeColor=#999999;fillColor=#ffffff;rounded=0;labelBackgroundColor=none;fontFamily=Verdana;fontSize=12;fontColor=#000000;" parent="7026571954dc6520-1" vertex="1">
          <mxGeometry x="752" y="940" width="200" height="200" as="geometry" />
        </mxCell>
        <mxCell id="9kK-CNt0EK_spcfwn9jb-17" value="&lt;h2 style=&quot;font-size: 34px;&quot; align=&quot;center&quot;&gt;Showcase&lt;br&gt;&lt;/h2&gt;" style="text;spacingTop=-5;whiteSpace=wrap;html=1;align=center;fontSize=12;fontFamily=Helvetica;fillColor=none;strokeColor=none;rounded=0;shadow=1;labelBackgroundColor=none;" parent="7026571954dc6520-1" vertex="1">
          <mxGeometry x="413.5" y="820" width="218" height="40" as="geometry" />
        </mxCell>
        <mxCell id="9kK-CNt0EK_spcfwn9jb-18" value="" style="triangle;whiteSpace=wrap;html=1;fillColor=#000000;" parent="7026571954dc6520-1" vertex="1">
          <mxGeometry x="972" y="1010" width="38" height="60" as="geometry" />
        </mxCell>
        <mxCell id="9kK-CNt0EK_spcfwn9jb-19" value="" style="triangle;whiteSpace=wrap;html=1;fillColor=#000000;direction=west;" parent="7026571954dc6520-1" vertex="1">
          <mxGeometry x="10" y="1010" width="38" height="60" as="geometry" />
        </mxCell>
        <mxCell id="9kK-CNt0EK_spcfwn9jb-20" value="View All Products" style="strokeWidth=1;shadow=0;dashed=0;align=center;html=1;shape=mxgraph.mockup.buttons.button;strokeColor=#666666;fontColor=#ffffff;mainText=;buttonStyle=round;fontSize=17;fontStyle=1;fillColor=#008cff;whiteSpace=wrap;" parent="7026571954dc6520-1" vertex="1">
          <mxGeometry x="420" y="1210" width="160" height="30" as="geometry" />
        </mxCell>
        <mxCell id="9kK-CNt0EK_spcfwn9jb-21" value="" style="verticalLabelPosition=bottom;shadow=0;dashed=0;align=center;html=1;verticalAlign=top;strokeWidth=1;shape=mxgraph.mockup.markup.line;strokeColor=#999999;rounded=0;labelBackgroundColor=none;fillColor=#ffffff;fontFamily=Verdana;fontSize=12;fontColor=#000000;" parent="7026571954dc6520-1" vertex="1">
          <mxGeometry y="1280" width="1040" height="20" as="geometry" />
        </mxCell>
        <mxCell id="9kK-CNt0EK_spcfwn9jb-22" value="" style="verticalLabelPosition=bottom;shadow=0;dashed=0;align=center;html=1;verticalAlign=top;strokeWidth=1;shape=mxgraph.mockup.graphics.simpleIcon;strokeColor=#999999;fillColor=#ffffff;rounded=0;labelBackgroundColor=none;fontFamily=Verdana;fontSize=12;fontColor=#000000;" parent="7026571954dc6520-1" vertex="1">
          <mxGeometry x="180" y="1340" width="320" height="360" as="geometry" />
        </mxCell>
        <mxCell id="9kK-CNt0EK_spcfwn9jb-23" value="&lt;h2&gt;&lt;font style=&quot;font-size: 25px;&quot;&gt;Reasons to shop here&lt;br&gt;&lt;/font&gt;&lt;/h2&gt;&lt;br&gt;                        " style="text;spacingTop=-5;whiteSpace=wrap;html=1;align=center;fontSize=12;fontFamily=Helvetica;fillColor=none;strokeColor=none;rounded=0;shadow=1;labelBackgroundColor=none;" parent="7026571954dc6520-1" vertex="1">
          <mxGeometry x="530" y="1340" width="410" height="60" as="geometry" />
        </mxCell>
        <mxCell id="9kK-CNt0EK_spcfwn9jb-24" value="&lt;div&gt;- Reason&lt;/div&gt;&lt;div&gt;&lt;br&gt;&lt;/div&gt;&lt;div&gt;- Reason&lt;/div&gt;&lt;div&gt;&lt;br&gt;&lt;/div&gt;&lt;div&gt;- Reason&lt;/div&gt;&lt;div&gt;&lt;br&gt;&lt;/div&gt;&lt;div&gt;- Reason&lt;br&gt;&lt;/div&gt;" style="strokeWidth=1;shadow=0;dashed=0;align=center;html=1;shape=mxgraph.mockup.text.bulletedList;textColor=#666666;mainText=,,,,;textSize=17;bulletStyle=none;strokeColor=none;fillColor=none;align=left;verticalAlign=top;fontSize=17;fontColor=#666666;" parent="7026571954dc6520-1" vertex="1">
          <mxGeometry x="620" y="1420" width="250" height="190" as="geometry" />
        </mxCell>
        <mxCell id="9kK-CNt0EK_spcfwn9jb-25" value="Get Started" style="strokeWidth=1;shadow=0;dashed=0;align=center;html=1;shape=mxgraph.mockup.buttons.button;strokeColor=#666666;fontColor=#ffffff;mainText=;buttonStyle=round;fontSize=17;fontStyle=1;fillColor=#008cff;whiteSpace=wrap;" parent="7026571954dc6520-1" vertex="1">
          <mxGeometry x="640" y="1650" width="160" height="30" as="geometry" />
        </mxCell>
        <mxCell id="9kK-CNt0EK_spcfwn9jb-26" value="" style="verticalLabelPosition=bottom;shadow=0;dashed=0;align=center;html=1;verticalAlign=top;strokeWidth=1;shape=mxgraph.mockup.markup.line;strokeColor=#999999;rounded=0;labelBackgroundColor=none;fillColor=#ffffff;fontFamily=Verdana;fontSize=12;fontColor=#000000;" parent="7026571954dc6520-1" vertex="1">
          <mxGeometry x="2.5" y="1750" width="1040" height="20" as="geometry" />
        </mxCell>
        <mxCell id="9kK-CNt0EK_spcfwn9jb-27" value="" style="verticalLabelPosition=bottom;shadow=0;dashed=0;align=center;html=1;verticalAlign=top;strokeWidth=1;shape=mxgraph.mockup.graphics.simpleIcon;strokeColor=#999999;fillColor=#ffffff;rounded=0;labelBackgroundColor=none;fontFamily=Verdana;fontSize=12;fontColor=#000000;" parent="7026571954dc6520-1" vertex="1">
          <mxGeometry x="72" y="1900" width="200" height="200" as="geometry" />
        </mxCell>
        <mxCell id="9kK-CNt0EK_spcfwn9jb-28" value="" style="verticalLabelPosition=bottom;shadow=0;dashed=0;align=center;html=1;verticalAlign=top;strokeWidth=1;shape=mxgraph.mockup.graphics.simpleIcon;strokeColor=#999999;fillColor=#ffffff;rounded=0;labelBackgroundColor=none;fontFamily=Verdana;fontSize=12;fontColor=#000000;" parent="7026571954dc6520-1" vertex="1">
          <mxGeometry x="408.5" y="1900" width="200" height="200" as="geometry" />
        </mxCell>
        <mxCell id="9kK-CNt0EK_spcfwn9jb-29" value="" style="verticalLabelPosition=bottom;shadow=0;dashed=0;align=center;html=1;verticalAlign=top;strokeWidth=1;shape=mxgraph.mockup.graphics.simpleIcon;strokeColor=#999999;fillColor=#ffffff;rounded=0;labelBackgroundColor=none;fontFamily=Verdana;fontSize=12;fontColor=#000000;" parent="7026571954dc6520-1" vertex="1">
          <mxGeometry x="752" y="1900" width="200" height="200" as="geometry" />
        </mxCell>
        <mxCell id="9kK-CNt0EK_spcfwn9jb-30" value="" style="verticalLabelPosition=bottom;shadow=0;dashed=0;align=center;html=1;verticalAlign=top;strokeWidth=1;shape=mxgraph.mockup.graphics.simpleIcon;strokeColor=#999999;fillColor=#ffffff;rounded=0;labelBackgroundColor=none;fontFamily=Verdana;fontSize=12;fontColor=#000000;" parent="7026571954dc6520-1" vertex="1">
          <mxGeometry x="80" y="2230" width="200" height="200" as="geometry" />
        </mxCell>
        <mxCell id="9kK-CNt0EK_spcfwn9jb-31" value="" style="verticalLabelPosition=bottom;shadow=0;dashed=0;align=center;html=1;verticalAlign=top;strokeWidth=1;shape=mxgraph.mockup.graphics.simpleIcon;strokeColor=#999999;fillColor=#ffffff;rounded=0;labelBackgroundColor=none;fontFamily=Verdana;fontSize=12;fontColor=#000000;" parent="7026571954dc6520-1" vertex="1">
          <mxGeometry x="416.5" y="2230" width="200" height="200" as="geometry" />
        </mxCell>
        <mxCell id="9kK-CNt0EK_spcfwn9jb-32" value="" style="verticalLabelPosition=bottom;shadow=0;dashed=0;align=center;html=1;verticalAlign=top;strokeWidth=1;shape=mxgraph.mockup.graphics.simpleIcon;strokeColor=#999999;fillColor=#ffffff;rounded=0;labelBackgroundColor=none;fontFamily=Verdana;fontSize=12;fontColor=#000000;" parent="7026571954dc6520-1" vertex="1">
          <mxGeometry x="760" y="2230" width="200" height="200" as="geometry" />
        </mxCell>
        <mxCell id="9kK-CNt0EK_spcfwn9jb-33" value="&lt;h2&gt;&lt;font style=&quot;font-size: 25px;&quot;&gt;Popular Products&lt;br&gt;&lt;/font&gt;&lt;/h2&gt;&lt;br&gt;                        " style="text;spacingTop=-5;whiteSpace=wrap;html=1;align=center;fontSize=12;fontFamily=Helvetica;fillColor=none;strokeColor=none;rounded=0;shadow=1;labelBackgroundColor=none;" parent="7026571954dc6520-1" vertex="1">
          <mxGeometry x="300" y="1780" width="410" height="60" as="geometry" />
        </mxCell>
        <mxCell id="9kK-CNt0EK_spcfwn9jb-34" value="Description" style="text;html=1;points=[];align=center;verticalAlign=top;spacingTop=-4;fontSize=15;fontFamily=Verdana" parent="7026571954dc6520-1" vertex="1">
          <mxGeometry x="132" y="1150" width="80" height="20" as="geometry" />
        </mxCell>
        <mxCell id="9kK-CNt0EK_spcfwn9jb-35" value="Description" style="text;html=1;points=[];align=center;verticalAlign=top;spacingTop=-4;fontSize=15;fontFamily=Verdana" parent="7026571954dc6520-1" vertex="1">
          <mxGeometry x="460" y="1150" width="80" height="20" as="geometry" />
        </mxCell>
        <mxCell id="9kK-CNt0EK_spcfwn9jb-36" value="Description" style="text;html=1;points=[];align=center;verticalAlign=top;spacingTop=-4;fontSize=15;fontFamily=Verdana" parent="7026571954dc6520-1" vertex="1">
          <mxGeometry x="812" y="1150" width="80" height="20" as="geometry" />
        </mxCell>
        <mxCell id="9kK-CNt0EK_spcfwn9jb-37" value="Description" style="text;html=1;points=[];align=center;verticalAlign=top;spacingTop=-4;fontSize=15;fontFamily=Verdana" parent="7026571954dc6520-1" vertex="1">
          <mxGeometry x="125" y="2110" width="80" height="20" as="geometry" />
        </mxCell>
        <mxCell id="9kK-CNt0EK_spcfwn9jb-38" value="Description" style="text;html=1;points=[];align=center;verticalAlign=top;spacingTop=-4;fontSize=15;fontFamily=Verdana" parent="7026571954dc6520-1" vertex="1">
          <mxGeometry x="453" y="2110" width="80" height="20" as="geometry" />
        </mxCell>
        <mxCell id="9kK-CNt0EK_spcfwn9jb-39" value="Description" style="text;html=1;points=[];align=center;verticalAlign=top;spacingTop=-4;fontSize=15;fontFamily=Verdana" parent="7026571954dc6520-1" vertex="1">
          <mxGeometry x="805" y="2110" width="80" height="20" as="geometry" />
        </mxCell>
        <mxCell id="9kK-CNt0EK_spcfwn9jb-40" value="Description" style="text;html=1;points=[];align=center;verticalAlign=top;spacingTop=-4;fontSize=15;fontFamily=Verdana" parent="7026571954dc6520-1" vertex="1">
          <mxGeometry x="136.5" y="2460" width="80" height="20" as="geometry" />
        </mxCell>
        <mxCell id="9kK-CNt0EK_spcfwn9jb-41" value="Description" style="text;html=1;points=[];align=center;verticalAlign=top;spacingTop=-4;fontSize=15;fontFamily=Verdana" parent="7026571954dc6520-1" vertex="1">
          <mxGeometry x="464.5" y="2460" width="80" height="20" as="geometry" />
        </mxCell>
        <mxCell id="9kK-CNt0EK_spcfwn9jb-42" value="Description" style="text;html=1;points=[];align=center;verticalAlign=top;spacingTop=-4;fontSize=15;fontFamily=Verdana" parent="7026571954dc6520-1" vertex="1">
          <mxGeometry x="816.5" y="2460" width="80" height="20" as="geometry" />
        </mxCell>
        <mxCell id="9kK-CNt0EK_spcfwn9jb-43" value="" style="verticalLabelPosition=bottom;shadow=0;dashed=0;align=center;html=1;verticalAlign=top;strokeWidth=1;shape=mxgraph.mockup.markup.line;strokeColor=#999999;rounded=0;labelBackgroundColor=none;fillColor=#ffffff;fontFamily=Verdana;fontSize=12;fontColor=#000000;" parent="7026571954dc6520-1" vertex="1">
          <mxGeometry y="2500" width="1040" height="20" as="geometry" />
        </mxCell>
        <mxCell id="9kK-CNt0EK_spcfwn9jb-44" value="&lt;h2&gt;&lt;font style=&quot;font-size: 25px;&quot;&gt;Testimonials&lt;br&gt;&lt;/font&gt;&lt;/h2&gt;&lt;br&gt;                        " style="text;spacingTop=-5;whiteSpace=wrap;html=1;align=center;fontSize=12;fontFamily=Helvetica;fillColor=none;strokeColor=none;rounded=0;shadow=1;labelBackgroundColor=none;" parent="7026571954dc6520-1" vertex="1">
          <mxGeometry x="320" y="2520" width="410" height="60" as="geometry" />
        </mxCell>
        <mxCell id="9kK-CNt0EK_spcfwn9jb-46" value="&lt;div&gt;&lt;i&gt;Lorem ipsum dolor sit amet, consectetur adipisicing elit, sed do eiusmod tempor incididunt ut labore et dolore magna aliqua. Ut enim ad minim veniam, quis nostrud exercitation ullamco laboris nisi ut aliquip ex ea commodo consequat. Duis aute irure dolor in reprehenderit in voluptate velit esse cillum dolore eu fugiat nulla pariatur. Excepteur sint iat quo voluptas nulla pariatur&lt;/i&gt;&lt;/div&gt;&lt;div&gt;&lt;i&gt;&lt;br&gt;&lt;/i&gt;&lt;/div&gt;&lt;div&gt;&lt;br&gt;&lt;/div&gt;&lt;div style=&quot;font-size: 14px;&quot; align=&quot;center&quot;&gt;&lt;font style=&quot;font-size: 14px;&quot;&gt;&lt;b&gt;NAME&lt;/b&gt;&lt;/font&gt;&lt;/div&gt;&lt;div style=&quot;font-size: 14px;&quot; align=&quot;center&quot;&gt;&lt;font style=&quot;font-size: 14px;&quot;&gt;&lt;b&gt;LOCATION&lt;/b&gt;&lt;/font&gt;&lt;br&gt;&lt;/div&gt;" style="text;spacingTop=-5;whiteSpace=wrap;html=1;align=left;fontSize=12;fontFamily=Helvetica;fillColor=none;strokeColor=none;labelBorderColor=default;" parent="7026571954dc6520-1" vertex="1">
          <mxGeometry x="113.5" y="2600" width="376.5" height="200" as="geometry" />
        </mxCell>
        <mxCell id="9kK-CNt0EK_spcfwn9jb-47" value="&lt;div&gt;&lt;i&gt;Lorem ipsum dolor sit amet, consectetur adipisicing elit, sed do eiusmod tempor incididunt ut labore et dolore magna aliqua. Ut enim ad minim veniam, quis nostrud exercitation ullamco laboris nisi ut aliquip ex ea commodo consequat. Duis aute irure dolor in reprehenderit in voluptate velit esse cillum dolore eu fugiat nulla pariatur. Excepteur sint iat quo voluptas nulla pariatur&lt;/i&gt;&lt;/div&gt;&lt;div&gt;&lt;i&gt;&lt;br&gt;&lt;/i&gt;&lt;/div&gt;&lt;div&gt;&lt;br&gt;&lt;/div&gt;&lt;div style=&quot;font-size: 14px;&quot; align=&quot;center&quot;&gt;&lt;font style=&quot;font-size: 14px;&quot;&gt;&lt;b&gt;NAME&lt;/b&gt;&lt;/font&gt;&lt;/div&gt;&lt;div style=&quot;font-size: 14px;&quot; align=&quot;center&quot;&gt;&lt;font style=&quot;font-size: 14px;&quot;&gt;&lt;b&gt;LOCATION&lt;/b&gt;&lt;/font&gt;&lt;br&gt;&lt;/div&gt;" style="text;spacingTop=-5;whiteSpace=wrap;html=1;align=left;fontSize=12;fontFamily=Helvetica;fillColor=none;strokeColor=none;labelBorderColor=default;" parent="7026571954dc6520-1" vertex="1">
          <mxGeometry x="583.5" y="2600" width="376.5" height="200" as="geometry" />
        </mxCell>
        <mxCell id="9kK-CNt0EK_spcfwn9jb-48" value="" style="triangle;whiteSpace=wrap;html=1;fillColor=#000000;direction=west;" parent="7026571954dc6520-1" vertex="1">
          <mxGeometry x="25" y="2650" width="38" height="60" as="geometry" />
        </mxCell>
        <mxCell id="9kK-CNt0EK_spcfwn9jb-49" value="" style="triangle;whiteSpace=wrap;html=1;fillColor=#000000;" parent="7026571954dc6520-1" vertex="1">
          <mxGeometry x="987" y="2650" width="38" height="60" as="geometry" />
        </mxCell>
        <mxCell id="9kK-CNt0EK_spcfwn9jb-50" value="" style="verticalLabelPosition=bottom;shadow=0;dashed=0;align=center;html=1;verticalAlign=top;strokeWidth=1;shape=mxgraph.mockup.markup.line;strokeColor=#999999;rounded=0;labelBackgroundColor=none;fillColor=#ffffff;fontFamily=Verdana;fontSize=12;fontColor=#000000;" parent="7026571954dc6520-1" vertex="1">
          <mxGeometry y="2840" width="1040" height="20" as="geometry" />
        </mxCell>
        <mxCell id="9kK-CNt0EK_spcfwn9jb-51" value="" style="rounded=0;whiteSpace=wrap;html=1;fillColor=#CCCCCC;" parent="7026571954dc6520-1" vertex="1">
          <mxGeometry y="2850" width="1050" height="190" as="geometry" />
        </mxCell>
        <mxCell id="9kK-CNt0EK_spcfwn9jb-52" value="&lt;h2&gt;&lt;font style=&quot;font-size: 25px;&quot;&gt;Footer&lt;br&gt;&lt;/font&gt;&lt;/h2&gt;&lt;br&gt;                        " style="text;spacingTop=-5;whiteSpace=wrap;html=1;align=center;fontSize=12;fontFamily=Helvetica;fillColor=none;strokeColor=none;rounded=0;shadow=1;labelBackgroundColor=none;" parent="7026571954dc6520-1" vertex="1">
          <mxGeometry x="300" y="2940" width="410" height="60" as="geometry" />
        </mxCell>
        <mxCell id="9kK-CNt0EK_spcfwn9jb-53" value="" style="ellipse;whiteSpace=wrap;html=1;aspect=fixed;" parent="7026571954dc6520-1" vertex="1">
          <mxGeometry x="30" y="2860" width="60" height="60" as="geometry" />
        </mxCell>
        <mxCell id="9kK-CNt0EK_spcfwn9jb-54" value="Logo" style="text;html=1;points=[];align=center;verticalAlign=top;spacingTop=-4;fontSize=15;fontFamily=Verdana" parent="7026571954dc6520-1" vertex="1">
          <mxGeometry x="33.5" y="2880" width="50" height="20" as="geometry" />
        </mxCell>
        <mxCell id="9kK-CNt0EK_spcfwn9jb-55" value="" style="rounded=1;whiteSpace=wrap;html=1;" parent="7026571954dc6520-1" vertex="1">
          <mxGeometry x="680" y="2860" width="280" height="30" as="geometry" />
        </mxCell>
        <mxCell id="9kK-CNt0EK_spcfwn9jb-56" value="&lt;div style=&quot;font-size: 13px;&quot; align=&quot;right&quot;&gt;&lt;font style=&quot;font-size: 14px;&quot;&gt;Subscribe to our newsletter&lt;/font&gt;&lt;/div&gt;" style="text;spacingTop=-5;whiteSpace=wrap;html=1;align=right;fontSize=12;fontFamily=Helvetica;labelBorderColor=default;fillColor=default;" parent="7026571954dc6520-1" vertex="1">
          <mxGeometry x="490" y="2865" width="176.5" height="20" as="geometry" />
        </mxCell>
      </root>
    </mxGraphModel>
  </diagram>
</mxfile>
